# xmcd CD database file
# Copyright (C) 1993-1997  Ti Kan
#
# Track frame offsets:
#	150
#	17907
#	34987
#	54347
#	84570
#	96415
#	109465
#	123505
#	142327
#	162920
#	173295
#	188672
#
# Disc length: 2674 seconds
#
# Revision: 1
# Processed by: cddbd v1.4b41PL1 Copyright (c) Steve Scherf et al.
# Submitted via: xmcd 2.2 PL0
#
DISCID=a30a700c
DTITLE=Paul Ubana Jones - The Things Which Touch Me So
DYEAR=1900
DGENRE=
TTITLE0=Freight Train
TTITLE1=He Is A Mirror
TTITLE2=Ballad Of A Thin Man
TTITLE3=I Used To Love Her
TTITLE4=The Owl And The Moon 
TTITLE5=Blues With A Feeling
TTITLE6=Running From Home
TTITLE7=Crack Up
TTITLE8=Special Request
TTITLE9=Sade
TTITLE10=The Things Which Touch Me So
TTITLE11=Okoi Ubanga
EXTD=trigg@cs.waikato.ac.nz
EXTT0=
EXTT1=
EXTT2=
EXTT3=
EXTT4=
EXTT5=
EXTT6=
EXTT7=
EXTT8=
EXTT9=
EXTT10=
EXTT11=
PLAYORDER=
